<svg width="208" height="70" viewBox="0 0 208 70" fill="none" xmlns="http://www.w3.org/2000/svg">
<path d="M168.324 -1.07138e-06C174.536 7.37892 180.948 13.7607 187.561 19.1453C194.173 24.5299 200.987 28.9174 208 32.3077L208 37.6923C194.173 44.6724 180.948 55.4416 168.324 70L157.803 70C161.01 63.2194 164.216 57.2365 167.422 52.0513C170.628 47.0655 173.734 42.8775 176.74 39.4872L176.74 30.5128C173.734 27.3219 170.628 23.1339 167.422 17.9487C164.216 12.963 161.01 6.98006 157.803 -1.99109e-06L168.324 -1.07138e-06ZM178.243 28.7179L178.243 41.2821L-4.20767e-06 41.282L-3.10929e-06 28.7179L178.243 28.7179Z" fill="white"/>
</svg>
